
        <svg xmlns="http://www.w3.org/2000/svg" xmlns:xlink="http://www.w3.org/1999/xlink" version="1.1" width="3023.255813953488" 
        height="3232.5581395348836" viewBox="0 -11.627906976744185 3023.255813953488 3232.5581395348836">
			<rect fill="#1a1a1a" width="3023.255813953488" height="3232.5581395348836"/>
			<g transform="scale(11.627906976744185) translate(10, 10)">
				<defs id="SvgjsDefs3082"></defs><g id="SvgjsG3083" featureKey="rootContainer" transform="matrix(1,0,0,1,0,0)" fill="#f73759"><rect y="0" height="1" width="1" opacity="0"></rect><rect y="252" width="240" height="5"></rect></g><g id="SvgjsG3084" featureKey="symbolFeature-0" transform="matrix(1.6541667761875822,0,0,1.6541667761875822,38.88790067900647,-12.304575931460155)" fill="#f73759"><path xmlns="http://www.w3.org/2000/svg" d="M50,93.166C26.198,93.166,6.834,73.802,6.834,50S26.198,6.834,50,6.834S93.166,26.198,93.166,50S73.802,93.166,50,93.166z   M50,8.834C27.301,8.834,8.834,27.301,8.834,50S27.301,91.166,50,91.166S91.166,72.699,91.166,50S72.699,8.834,50,8.834z"></path><path xmlns="http://www.w3.org/2000/svg" d="M44.714,46.55l-0.107-0.742c18.198-2.623,28.245-13.025,31.72-17.375l0.586,0.468C73.382,33.32,63.177,43.889,44.714,46.55z  "></path><circle xmlns="http://www.w3.org/2000/svg" cx="44.793" cy="46.114" r="2.82"></circle><circle xmlns="http://www.w3.org/2000/svg" cx="76.514" cy="28.767" r="2.82"></circle><path xmlns="http://www.w3.org/2000/svg" d="M33.874,80.997c-3.484-4.387-9.012-13.539-6.895-25.552l0.738,0.131c-2.066,11.723,3.338,20.666,6.743,24.954L33.874,80.997  z"></path><circle xmlns="http://www.w3.org/2000/svg" cx="27.345" cy="55.653" r="2.82"></circle><circle xmlns="http://www.w3.org/2000/svg" cx="34.08" cy="80.649" r="2.82"></circle><path xmlns="http://www.w3.org/2000/svg" d="M78.553,58.284l-0.75-0.021c0.262-9.375-3.322-18.348-10.093-25.265c-7.05-7.204-16.891-11.292-27.026-11.233l-0.005-0.75  c10.321-0.04,20.376,4.11,27.567,11.458C75.16,39.537,78.82,48.704,78.553,58.284z"></path><circle xmlns="http://www.w3.org/2000/svg" cx="78.128" cy="58.131" r="2.82"></circle><circle xmlns="http://www.w3.org/2000/svg" cx="40.819" cy="21.442" r="2.82"></circle><path xmlns="http://www.w3.org/2000/svg" d="M55.399,79.061c-22.622-1.116-37.959-15.928-44.77-29.418c-5.007-9.918-5.79-19.582-2.043-25.222  c2.418-3.64,6.575-5.361,12.009-4.983l-0.052,0.748c-5.164-0.361-9.073,1.249-11.333,4.65c-3.598,5.416-2.798,14.791,2.088,24.469  c6.715,13.302,21.837,27.906,44.138,29.006L55.399,79.061z"></path><circle xmlns="http://www.w3.org/2000/svg" cx="55.277" cy="78.637" r="2.82"></circle><path xmlns="http://www.w3.org/2000/svg" d="M23.574,83.267C13.12,81.553,6.04,74.011,5.536,64.052c-0.484-9.58,5.413-20.969,19.679-24.818l0.195,0.724  C11.548,43.698,5.816,54.734,6.286,64.014c0.386,7.634,5.162,16.505,17.41,18.513L23.574,83.267z"></path><circle xmlns="http://www.w3.org/2000/svg" cx="25.179" cy="39.64" r="2.82"></circle><path xmlns="http://www.w3.org/2000/svg" d="M72.426,94.555c-0.325,0-0.654-0.015-0.988-0.046c-6.336-0.589-12.075-6.442-15.354-15.658l0.707-0.252  c3.178,8.934,8.679,14.602,14.716,15.163c3.25,0.309,6.127-1.001,7.521-3.397c1.443-2.479,1.026-5.686-1.145-8.796l0.615-0.43  c2.345,3.36,2.773,6.86,1.178,9.603C78.278,93.144,75.556,94.555,72.426,94.555z"></path><path xmlns="http://www.w3.org/2000/svg" d="M63.068,18.924l-0.713-0.234c1.704-5.167,4.714-8.496,8.26-9.131c2.183-0.394,4.329,0.351,5.595,1.938  c1.251,1.568,1.453,3.679,0.556,5.79l-0.689-0.293c0.786-1.85,0.621-3.683-0.452-5.029c-1.094-1.371-2.963-2.01-4.877-1.667  C67.481,10.882,64.683,14.027,63.068,18.924z"></path><circle xmlns="http://www.w3.org/2000/svg" cx="62.771" cy="18.677" r="2.82"></circle></g><g id="SvgjsG3085" featureKey="nameFeature-0" transform="matrix(1.9502047241067944,0,0,1.9502047241067944,0,162.01579300252413)" fill="#f73759"><path d="M13.84 11.36 l0 3.84 l-4.76 0 l0 24.84 l-3.84 0 l0 -24.84 l-5.24 0 l0 -3.84 l13.84 0 z M26.868000000000002 24.92 l-5.52 0 l0 11.28 l5.56 0 l0 3.8 l-9.36 0 l0 -28.56 l9.36 0 l0 3.8 l-5.56 0 l0 5.88 l5.52 0 l0 3.8 z M39.896 33.44 l0.16 -22.16 l3.84 0 l-0.24 28.88 l-5.96 0 l-3.24 -22.36 l0 22.36 l-3.84 0 l0 -28.88 l6.2 0 z M53.084 40.24 c-3.04 0 -5.48 -2.48 -5.48 -5.48 l0 -4.36 l3.88 0 l0 4.36 c0 0.88 0.72 1.6 1.6 1.6 s1.56 -0.72 1.56 -1.6 l0 -3.8 l-7.04 -9.72 l0 -4.96 c0 -3.04 2.44 -5.52 5.48 -5.52 c3 0 5.44 2.48 5.44 5.52 l0 4.32 l-3.88 0 l0 -4.32 c0 -0.92 -0.68 -1.6 -1.56 -1.6 s-1.6 0.68 -1.6 1.6 l0 3.64 l7.04 9.72 l0 5.12 c0 3 -2.44 5.48 -5.44 5.48 z M67.632 40.04 c-3 0 -5.4 -2.44 -5.4 -5.4 l0 -17.96 c0 -2.96 2.4 -5.36 5.4 -5.36 c2.96 0 5.36 2.4 5.36 5.36 l0 17.96 c0 2.96 -2.4 5.4 -5.36 5.4 z M67.632 15.120000000000001 c-0.88 0 -1.56 0.72 -1.56 1.56 l0 17.96 c0 0.88 0.68 1.56 1.56 1.56 c0.84 0 1.56 -0.68 1.56 -1.56 l0 -17.96 c0 -0.84 -0.72 -1.56 -1.56 -1.56 z M87.66 40.08 l-4.08 0 l-2.2 -6.04 l-0.88 0 l0 6.04 l-3.8 0 l0 -28.64 l5.96 0 c2.64 0 4.76 2.12 4.76 4.76 l0 13.08 c0 1.72 -0.88 3.2 -2.24 4.04 z M80.5 15.239999999999998 l0 15 l2.16 0 c0.52 0 0.96 -0.44 0.96 -0.96 l0 -13.08 c0 -0.52 -0.44 -0.96 -0.96 -0.96 l-2.16 0 z M111.71600000000001 40 l-1.44 -9.88 l-4.04 0 l-1.32 9.88 l-3.84 0 l4.32 -28.6 l5.16 0 l5 28.6 l-3.84 0 z M106.756 26.32 l2.96 0 l-1.52 -10.4 z M123.06400000000001 11.36 l0 28.48 l-3.8 0 l0 -28.48 l3.8 0 z"></path></g>
			</g>
		</svg>
	